<svg width="934" height="157" viewBox="0 0 934 157" fill="none" xmlns="http://www.w3.org/2000/svg">
<mask id="path-1-outside-1_20_6" maskUnits="userSpaceOnUse" x="0" y="0" width="934" height="157" fill="black">
<rect fill="white" width="934" height="157"/>
<path d="M55.5469 2.10938C70.0781 2.10938 81.3542 5.9375 89.375 13.5938C97.3958 21.25 101.849 29.9479 102.734 39.6875H87.5781C85.8594 32.2917 82.4219 26.4323 77.2656 22.1094C72.1615 17.7865 64.974 15.625 55.7031 15.625C44.401 15.625 35.2604 19.6094 28.2812 27.5781C21.3542 35.4948 17.8906 47.6562 17.8906 64.0625C17.8906 77.5 21.0156 88.4115 27.2656 96.7969C33.5677 105.13 42.9427 109.297 55.3906 109.297C66.849 109.297 75.5729 104.896 81.5625 96.0938C84.7396 91.4583 87.1094 85.3646 88.6719 77.8125H103.828C102.474 89.8958 97.9948 100.026 90.3906 108.203C81.276 118.047 68.9844 122.969 53.5156 122.969C40.1823 122.969 28.9844 118.932 19.9219 110.859C7.99479 100.182 2.03125 83.6979 2.03125 61.4062C2.03125 44.4792 6.51042 30.599 15.4688 19.7656C25.1562 7.99479 38.5156 2.10938 55.5469 2.10938ZM130.119 97.7344C130.119 101.797 131.603 105 134.572 107.344C137.541 109.688 141.056 110.859 145.119 110.859C150.067 110.859 154.858 109.714 159.494 107.422C167.306 103.62 171.213 97.3958 171.213 88.75V77.4219C169.494 78.5156 167.28 79.4271 164.572 80.1562C161.864 80.8854 159.207 81.4062 156.603 81.7188L148.088 82.8125C142.983 83.4896 139.155 84.5573 136.603 86.0156C132.28 88.4635 130.119 92.3698 130.119 97.7344ZM164.181 69.2969C167.41 68.8802 169.572 67.526 170.666 65.2344C171.291 63.9844 171.603 62.1875 171.603 59.8438C171.603 55.0521 169.884 51.5885 166.447 49.4531C163.061 47.2656 158.192 46.1719 151.838 46.1719C144.494 46.1719 139.285 48.151 136.213 52.1094C134.494 54.2969 133.374 57.5521 132.853 61.875H119.728C119.989 51.5625 123.322 44.401 129.728 40.3906C136.186 36.3281 143.66 34.2969 152.15 34.2969C161.994 34.2969 169.989 36.1719 176.134 39.9219C182.228 43.6719 185.275 49.5052 185.275 57.4219V105.625C185.275 107.083 185.561 108.255 186.134 109.141C186.759 110.026 188.035 110.469 189.963 110.469C190.588 110.469 191.291 110.443 192.072 110.391C192.853 110.286 193.686 110.156 194.572 110V120.391C192.384 121.016 190.718 121.406 189.572 121.562C188.426 121.719 186.864 121.797 184.884 121.797C180.041 121.797 176.525 120.078 174.338 116.641C173.192 114.818 172.384 112.24 171.916 108.906C169.051 112.656 164.936 115.911 159.572 118.672C154.207 121.432 148.296 122.812 141.838 122.812C134.077 122.812 127.723 120.469 122.775 115.781C117.879 111.042 115.431 105.13 115.431 98.0469C115.431 90.2865 117.853 84.2708 122.697 80C127.541 75.7292 133.895 73.099 141.759 72.1094L164.181 69.2969ZM207.191 5.23438H221.253V120H207.191V5.23438ZM275.669 34.4531C281.606 34.4531 287.361 35.8594 292.934 38.6719C298.507 41.4323 302.752 45.026 305.669 49.4531C308.481 53.6719 310.356 58.5938 311.294 64.2188C312.127 68.0729 312.544 74.2188 312.544 82.6562H251.216C251.476 91.1458 253.481 97.9688 257.231 103.125C260.981 108.229 266.789 110.781 274.653 110.781C281.997 110.781 287.856 108.359 292.231 103.516C294.731 100.703 296.502 97.4479 297.544 93.75H311.372C311.007 96.8229 309.783 100.26 307.7 104.062C305.669 107.812 303.377 110.885 300.825 113.281C296.554 117.448 291.268 120.26 284.966 121.719C281.58 122.552 277.752 122.969 273.481 122.969C263.065 122.969 254.236 119.193 246.997 111.641C239.757 104.036 236.137 93.4115 236.137 79.7656C236.137 66.3281 239.783 55.4167 247.075 47.0312C254.367 38.6458 263.898 34.4531 275.669 34.4531ZM298.091 71.4844C297.518 65.3906 296.19 60.5208 294.106 56.875C290.252 50.1042 283.82 46.7188 274.809 46.7188C268.351 46.7188 262.934 49.0625 258.559 53.75C254.184 58.3854 251.867 64.2969 251.606 71.4844H298.091ZM327.194 4.84375H340.866V46.4844C343.939 42.474 347.61 39.4271 351.881 37.3438C356.152 35.2083 360.788 34.1406 365.788 34.1406C376.204 34.1406 384.642 37.7344 391.1 44.9219C397.61 52.0573 400.866 62.6042 400.866 76.5625C400.866 89.7917 397.663 100.781 391.256 109.531C384.85 118.281 375.97 122.656 364.616 122.656C358.261 122.656 352.897 121.12 348.522 118.047C345.918 116.224 343.131 113.307 340.163 109.297V120H327.194V4.84375ZM363.756 110.234C371.36 110.234 377.038 107.214 380.788 101.172C384.59 95.1302 386.491 87.1615 386.491 77.2656C386.491 68.4635 384.59 61.1719 380.788 55.3906C377.038 49.6094 371.491 46.7188 364.147 46.7188C357.741 46.7188 352.116 49.0885 347.272 53.8281C342.48 58.5677 340.084 66.3802 340.084 77.2656C340.084 85.1302 341.074 91.5104 343.053 96.4062C346.751 105.625 353.652 110.234 363.756 110.234ZM460.556 5.23438H476.103V106.328H534.228V120H460.556V5.23438ZM592.472 36.3281H608.019C606.04 41.6927 601.639 53.9323 594.816 73.0469C589.711 87.4219 585.441 99.1406 582.003 108.203C573.878 129.557 568.149 142.578 564.816 147.266C561.482 151.953 555.753 154.297 547.628 154.297C545.649 154.297 544.112 154.219 543.019 154.062C541.977 153.906 540.675 153.62 539.112 153.203V140.391C541.56 141.068 543.331 141.484 544.425 141.641C545.519 141.797 546.482 141.875 547.316 141.875C549.92 141.875 551.821 141.432 553.019 140.547C554.269 139.714 555.31 138.672 556.144 137.422C556.404 137.005 557.342 134.87 558.956 131.016C560.571 127.161 561.743 124.297 562.472 122.422L531.534 36.3281H547.472L569.894 104.453L592.472 36.3281ZM618.294 5.23438H631.809V71.875L667.903 36.3281H685.872L653.841 67.6562L687.669 120H669.7L643.606 77.8125L631.809 88.5938V120H618.294V5.23438ZM696.694 5.23438H710.209V71.875L746.303 36.3281H764.272L732.241 67.6562L766.069 120H748.1L722.006 77.8125L710.209 88.5938V120H696.694V5.23438ZM810.25 34.4531C816.188 34.4531 821.943 35.8594 827.516 38.6719C833.089 41.4323 837.333 45.026 840.25 49.4531C843.062 53.6719 844.938 58.5938 845.875 64.2188C846.708 68.0729 847.125 74.2188 847.125 82.6562H785.797C786.057 91.1458 788.062 97.9688 791.812 103.125C795.562 108.229 801.37 110.781 809.234 110.781C816.578 110.781 822.438 108.359 826.812 103.516C829.312 100.703 831.083 97.4479 832.125 93.75H845.953C845.589 96.8229 844.365 100.26 842.281 104.062C840.25 107.812 837.958 110.885 835.406 113.281C831.135 117.448 825.849 120.26 819.547 121.719C816.161 122.552 812.333 122.969 808.062 122.969C797.646 122.969 788.818 119.193 781.578 111.641C774.339 104.036 770.719 93.4115 770.719 79.7656C770.719 66.3281 774.365 55.4167 781.656 47.0312C788.948 38.6458 798.479 34.4531 810.25 34.4531ZM832.672 71.4844C832.099 65.3906 830.771 60.5208 828.688 56.875C824.833 50.1042 818.401 46.7188 809.391 46.7188C802.932 46.7188 797.516 49.0625 793.141 53.75C788.766 58.3854 786.448 64.2969 786.188 71.4844H832.672ZM862.869 36.3281H876.228V48.2031C880.186 43.3073 884.379 39.7917 888.806 37.6562C893.233 35.5208 898.155 34.4531 903.572 34.4531C915.447 34.4531 923.468 38.5938 927.634 46.875C929.926 51.4062 931.072 57.8906 931.072 66.3281V120H916.775V67.2656C916.775 62.1615 916.02 58.0469 914.509 54.9219C912.009 49.7135 907.478 47.1094 900.916 47.1094C897.582 47.1094 894.848 47.4479 892.713 48.125C888.858 49.2708 885.473 51.5625 882.556 55C880.213 57.7604 878.676 60.625 877.947 63.5938C877.27 66.5104 876.931 70.7031 876.931 76.1719V120H862.869V36.3281Z"/>
</mask>
<path d="M55.5469 2.10938C70.0781 2.10938 81.3542 5.9375 89.375 13.5938C97.3958 21.25 101.849 29.9479 102.734 39.6875H87.5781C85.8594 32.2917 82.4219 26.4323 77.2656 22.1094C72.1615 17.7865 64.974 15.625 55.7031 15.625C44.401 15.625 35.2604 19.6094 28.2812 27.5781C21.3542 35.4948 17.8906 47.6562 17.8906 64.0625C17.8906 77.5 21.0156 88.4115 27.2656 96.7969C33.5677 105.13 42.9427 109.297 55.3906 109.297C66.849 109.297 75.5729 104.896 81.5625 96.0938C84.7396 91.4583 87.1094 85.3646 88.6719 77.8125H103.828C102.474 89.8958 97.9948 100.026 90.3906 108.203C81.276 118.047 68.9844 122.969 53.5156 122.969C40.1823 122.969 28.9844 118.932 19.9219 110.859C7.99479 100.182 2.03125 83.6979 2.03125 61.4062C2.03125 44.4792 6.51042 30.599 15.4688 19.7656C25.1562 7.99479 38.5156 2.10938 55.5469 2.10938ZM130.119 97.7344C130.119 101.797 131.603 105 134.572 107.344C137.541 109.688 141.056 110.859 145.119 110.859C150.067 110.859 154.858 109.714 159.494 107.422C167.306 103.62 171.213 97.3958 171.213 88.75V77.4219C169.494 78.5156 167.28 79.4271 164.572 80.1562C161.864 80.8854 159.207 81.4062 156.603 81.7188L148.088 82.8125C142.983 83.4896 139.155 84.5573 136.603 86.0156C132.28 88.4635 130.119 92.3698 130.119 97.7344ZM164.181 69.2969C167.41 68.8802 169.572 67.526 170.666 65.2344C171.291 63.9844 171.603 62.1875 171.603 59.8438C171.603 55.0521 169.884 51.5885 166.447 49.4531C163.061 47.2656 158.192 46.1719 151.838 46.1719C144.494 46.1719 139.285 48.151 136.213 52.1094C134.494 54.2969 133.374 57.5521 132.853 61.875H119.728C119.989 51.5625 123.322 44.401 129.728 40.3906C136.186 36.3281 143.66 34.2969 152.15 34.2969C161.994 34.2969 169.989 36.1719 176.134 39.9219C182.228 43.6719 185.275 49.5052 185.275 57.4219V105.625C185.275 107.083 185.561 108.255 186.134 109.141C186.759 110.026 188.035 110.469 189.963 110.469C190.588 110.469 191.291 110.443 192.072 110.391C192.853 110.286 193.686 110.156 194.572 110V120.391C192.384 121.016 190.718 121.406 189.572 121.562C188.426 121.719 186.864 121.797 184.884 121.797C180.041 121.797 176.525 120.078 174.338 116.641C173.192 114.818 172.384 112.24 171.916 108.906C169.051 112.656 164.936 115.911 159.572 118.672C154.207 121.432 148.296 122.812 141.838 122.812C134.077 122.812 127.723 120.469 122.775 115.781C117.879 111.042 115.431 105.13 115.431 98.0469C115.431 90.2865 117.853 84.2708 122.697 80C127.541 75.7292 133.895 73.099 141.759 72.1094L164.181 69.2969ZM207.191 5.23438H221.253V120H207.191V5.23438ZM275.669 34.4531C281.606 34.4531 287.361 35.8594 292.934 38.6719C298.507 41.4323 302.752 45.026 305.669 49.4531C308.481 53.6719 310.356 58.5938 311.294 64.2188C312.127 68.0729 312.544 74.2188 312.544 82.6562H251.216C251.476 91.1458 253.481 97.9688 257.231 103.125C260.981 108.229 266.789 110.781 274.653 110.781C281.997 110.781 287.856 108.359 292.231 103.516C294.731 100.703 296.502 97.4479 297.544 93.75H311.372C311.007 96.8229 309.783 100.26 307.7 104.062C305.669 107.812 303.377 110.885 300.825 113.281C296.554 117.448 291.268 120.26 284.966 121.719C281.58 122.552 277.752 122.969 273.481 122.969C263.065 122.969 254.236 119.193 246.997 111.641C239.757 104.036 236.137 93.4115 236.137 79.7656C236.137 66.3281 239.783 55.4167 247.075 47.0312C254.367 38.6458 263.898 34.4531 275.669 34.4531ZM298.091 71.4844C297.518 65.3906 296.19 60.5208 294.106 56.875C290.252 50.1042 283.82 46.7188 274.809 46.7188C268.351 46.7188 262.934 49.0625 258.559 53.75C254.184 58.3854 251.867 64.2969 251.606 71.4844H298.091ZM327.194 4.84375H340.866V46.4844C343.939 42.474 347.61 39.4271 351.881 37.3438C356.152 35.2083 360.788 34.1406 365.788 34.1406C376.204 34.1406 384.642 37.7344 391.1 44.9219C397.61 52.0573 400.866 62.6042 400.866 76.5625C400.866 89.7917 397.663 100.781 391.256 109.531C384.85 118.281 375.97 122.656 364.616 122.656C358.261 122.656 352.897 121.12 348.522 118.047C345.918 116.224 343.131 113.307 340.163 109.297V120H327.194V4.84375ZM363.756 110.234C371.36 110.234 377.038 107.214 380.788 101.172C384.59 95.1302 386.491 87.1615 386.491 77.2656C386.491 68.4635 384.59 61.1719 380.788 55.3906C377.038 49.6094 371.491 46.7188 364.147 46.7188C357.741 46.7188 352.116 49.0885 347.272 53.8281C342.48 58.5677 340.084 66.3802 340.084 77.2656C340.084 85.1302 341.074 91.5104 343.053 96.4062C346.751 105.625 353.652 110.234 363.756 110.234ZM460.556 5.23438H476.103V106.328H534.228V120H460.556V5.23438ZM592.472 36.3281H608.019C606.04 41.6927 601.639 53.9323 594.816 73.0469C589.711 87.4219 585.441 99.1406 582.003 108.203C573.878 129.557 568.149 142.578 564.816 147.266C561.482 151.953 555.753 154.297 547.628 154.297C545.649 154.297 544.112 154.219 543.019 154.062C541.977 153.906 540.675 153.62 539.112 153.203V140.391C541.56 141.068 543.331 141.484 544.425 141.641C545.519 141.797 546.482 141.875 547.316 141.875C549.92 141.875 551.821 141.432 553.019 140.547C554.269 139.714 555.31 138.672 556.144 137.422C556.404 137.005 557.342 134.87 558.956 131.016C560.571 127.161 561.743 124.297 562.472 122.422L531.534 36.3281H547.472L569.894 104.453L592.472 36.3281ZM618.294 5.23438H631.809V71.875L667.903 36.3281H685.872L653.841 67.6562L687.669 120H669.7L643.606 77.8125L631.809 88.5938V120H618.294V5.23438ZM696.694 5.23438H710.209V71.875L746.303 36.3281H764.272L732.241 67.6562L766.069 120H748.1L722.006 77.8125L710.209 88.5938V120H696.694V5.23438ZM810.25 34.4531C816.188 34.4531 821.943 35.8594 827.516 38.6719C833.089 41.4323 837.333 45.026 840.25 49.4531C843.062 53.6719 844.938 58.5938 845.875 64.2188C846.708 68.0729 847.125 74.2188 847.125 82.6562H785.797C786.057 91.1458 788.062 97.9688 791.812 103.125C795.562 108.229 801.37 110.781 809.234 110.781C816.578 110.781 822.438 108.359 826.812 103.516C829.312 100.703 831.083 97.4479 832.125 93.75H845.953C845.589 96.8229 844.365 100.26 842.281 104.062C840.25 107.812 837.958 110.885 835.406 113.281C831.135 117.448 825.849 120.26 819.547 121.719C816.161 122.552 812.333 122.969 808.062 122.969C797.646 122.969 788.818 119.193 781.578 111.641C774.339 104.036 770.719 93.4115 770.719 79.7656C770.719 66.3281 774.365 55.4167 781.656 47.0312C788.948 38.6458 798.479 34.4531 810.25 34.4531ZM832.672 71.4844C832.099 65.3906 830.771 60.5208 828.688 56.875C824.833 50.1042 818.401 46.7188 809.391 46.7188C802.932 46.7188 797.516 49.0625 793.141 53.75C788.766 58.3854 786.448 64.2969 786.188 71.4844H832.672ZM862.869 36.3281H876.228V48.2031C880.186 43.3073 884.379 39.7917 888.806 37.6562C893.233 35.5208 898.155 34.4531 903.572 34.4531C915.447 34.4531 923.468 38.5938 927.634 46.875C929.926 51.4062 931.072 57.8906 931.072 66.3281V120H916.775V67.2656C916.775 62.1615 916.02 58.0469 914.509 54.9219C912.009 49.7135 907.478 47.1094 900.916 47.1094C897.582 47.1094 894.848 47.4479 892.713 48.125C888.858 49.2708 885.473 51.5625 882.556 55C880.213 57.7604 878.676 60.625 877.947 63.5938C877.27 66.5104 876.931 70.7031 876.931 76.1719V120H862.869V36.3281Z" fill="#EF6440"/>
<path d="M102.734 39.6875V41.6875H104.924L104.726 39.5064L102.734 39.6875ZM87.5781 39.6875L85.63 40.1402L85.9896 41.6875H87.5781V39.6875ZM77.2656 22.1094L75.973 23.6356L75.9807 23.642L77.2656 22.1094ZM28.2812 27.5781L26.7767 26.2604L26.7761 26.2611L28.2812 27.5781ZM27.2656 96.7969L25.662 97.9921L25.6704 98.0033L27.2656 96.7969ZM81.5625 96.0938L79.9128 94.963L79.909 94.9686L81.5625 96.0938ZM88.6719 77.8125V75.8125H87.0433L86.7134 77.4073L88.6719 77.8125ZM103.828 77.8125L105.816 78.0352L106.065 75.8125H103.828V77.8125ZM90.3906 108.203L88.926 106.841L88.9231 106.844L90.3906 108.203ZM19.9219 110.859L18.5879 112.35L18.5916 112.353L19.9219 110.859ZM15.4688 19.7656L17.01 21.0402L17.013 21.0366L15.4688 19.7656ZM55.5469 2.10938V4.10938C69.7286 4.10938 80.4495 7.83883 87.994 15.0405L89.375 13.5938L90.756 12.147C82.2589 4.03617 70.4276 0.109375 55.5469 0.109375V2.10938ZM89.375 13.5938L87.994 15.0405C95.7149 22.4103 99.9069 30.6755 100.743 39.8686L102.734 39.6875L104.726 39.5064C103.791 29.2203 99.0768 20.0897 90.756 12.147L89.375 13.5938ZM102.734 39.6875V37.6875H87.5781V39.6875V41.6875H102.734V39.6875ZM87.5781 39.6875L89.5262 39.2348C87.7225 31.4735 84.0812 25.2135 78.5506 20.5767L77.2656 22.1094L75.9807 23.642C80.7626 27.651 83.9962 33.1099 85.63 40.1402L87.5781 39.6875ZM77.2656 22.1094L78.5582 20.5832C72.9749 15.8545 65.2656 13.625 55.7031 13.625V15.625V17.625C64.6823 17.625 71.348 19.7185 75.973 23.6356L77.2656 22.1094ZM55.7031 15.625V13.625C43.8683 13.625 34.1635 17.8262 26.7767 26.2604L28.2812 27.5781L29.7858 28.8958C36.3573 21.3925 44.9337 17.625 55.7031 17.625V15.625ZM28.2812 27.5781L26.7761 26.2611C19.3932 34.6987 15.8906 47.4305 15.8906 64.0625H17.8906H19.8906C19.8906 47.882 23.3152 36.2908 29.7864 28.8951L28.2812 27.5781ZM17.8906 64.0625H15.8906C15.8906 77.8074 19.0896 89.1741 25.662 97.9921L27.2656 96.7969L28.8692 95.6017C22.9416 87.6488 19.8906 77.1926 19.8906 64.0625H17.8906ZM27.2656 96.7969L25.6704 98.0033C32.4251 106.935 42.451 111.297 55.3906 111.297V109.297V107.297C43.4345 107.297 34.7103 103.325 28.8608 95.5905L27.2656 96.7969ZM55.3906 109.297V111.297C67.4513 111.297 76.8216 106.616 83.216 97.2189L81.5625 96.0938L79.909 94.9686C74.3242 103.176 66.2467 107.297 55.3906 107.297V109.297ZM81.5625 96.0938L83.2122 97.2244C86.584 92.3049 89.0329 85.9391 90.6304 78.2177L88.6719 77.8125L86.7134 77.4073C85.1859 84.79 82.8951 90.6118 79.9128 94.9631L81.5625 96.0938ZM88.6719 77.8125V79.8125H103.828V77.8125V75.8125H88.6719V77.8125ZM103.828 77.8125L101.841 77.5898C100.53 89.2871 96.212 99.0062 88.926 106.841L90.3906 108.203L91.8552 109.565C99.7776 101.046 104.418 90.5045 105.816 78.0352L103.828 77.8125ZM90.3906 108.203L88.9231 106.844C80.2462 116.215 68.5208 120.969 53.5156 120.969V122.969V124.969C69.448 124.969 82.3058 119.878 91.8581 109.562L90.3906 108.203ZM53.5156 122.969V120.969C40.6206 120.969 29.9112 117.079 21.2522 109.366L19.9219 110.859L18.5916 112.353C28.0576 120.785 39.744 124.969 53.5156 124.969V122.969ZM19.9219 110.859L21.2558 109.369C9.8987 99.2024 4.03125 83.3602 4.03125 61.4062H2.03125H0.03125C0.03125 84.0356 6.09088 101.162 18.5879 112.35L19.9219 110.859ZM2.03125 61.4062H4.03125C4.03125 44.8456 8.40559 31.4455 17.01 21.0402L15.4688 19.7656L13.9275 18.4911C4.61525 29.7524 0.03125 44.1127 0.03125 61.4062H2.03125ZM15.4688 19.7656L17.013 21.0366C26.273 9.78518 39.0343 4.10938 55.5469 4.10938V2.10938V0.109375C37.9969 0.109375 24.0395 6.20441 13.9245 18.4947L15.4688 19.7656ZM159.494 107.422L158.619 105.624L158.607 105.629L159.494 107.422ZM171.212 77.4219H173.212V73.7785L170.139 75.7346L171.212 77.4219ZM164.572 80.1562L165.092 82.0875L164.572 80.1562ZM156.603 81.7188L156.365 79.733L156.357 79.734L156.348 79.735L156.603 81.7188ZM148.087 82.8125L147.833 80.8288L147.824 80.8299L148.087 82.8125ZM136.603 86.0156L137.589 87.756L137.595 87.7521L136.603 86.0156ZM164.181 69.2969L164.43 71.2813L164.437 71.2804L164.181 69.2969ZM170.666 65.2344L168.877 64.34L168.869 64.3564L168.861 64.3729L170.666 65.2344ZM166.447 49.4531L165.361 51.133L165.376 51.1426L165.392 51.152L166.447 49.4531ZM136.212 52.1094L137.785 53.345L137.792 53.3358L136.212 52.1094ZM132.853 61.875V63.875H134.627L134.839 62.1142L132.853 61.875ZM119.728 61.875L117.729 61.8245L117.677 63.875H119.728V61.875ZM129.728 40.3906L130.789 42.0859L130.793 42.0835L129.728 40.3906ZM176.134 39.9219L177.183 38.2185L177.176 38.2146L176.134 39.9219ZM186.134 109.141L184.455 110.227L184.477 110.261L184.5 110.294L186.134 109.141ZM192.072 110.391L192.205 112.386L192.271 112.382L192.336 112.373L192.072 110.391ZM194.572 110H196.572V107.616L194.224 108.03L194.572 110ZM194.572 120.391L195.121 122.314L196.572 121.899V120.391H194.572ZM189.572 121.562L189.302 119.581L189.572 121.562ZM174.337 116.641L172.644 117.705L172.65 117.714L174.337 116.641ZM171.916 108.906L173.896 108.628L173.23 103.891L170.326 107.692L171.916 108.906ZM122.775 115.781L121.384 117.218L121.392 117.226L121.4 117.233L122.775 115.781ZM122.697 80L121.374 78.4999L122.697 80ZM141.759 72.1094L141.51 70.1249L141.51 70.125L141.759 72.1094ZM130.119 97.7344H128.119C128.119 102.357 129.844 106.159 133.333 108.914L134.572 107.344L135.811 105.774C133.362 103.841 132.119 101.237 132.119 97.7344H130.119ZM134.572 107.344L133.333 108.914C136.681 111.557 140.642 112.859 145.119 112.859V110.859V108.859C141.47 108.859 138.4 107.818 135.811 105.774L134.572 107.344ZM145.119 110.859V112.859C150.388 112.859 155.482 111.636 160.38 109.215L159.494 107.422L158.607 105.629C154.235 107.791 149.745 108.859 145.119 108.859V110.859ZM159.494 107.422L160.369 109.22C164.549 107.186 167.791 104.448 169.977 100.966C172.163 97.4823 173.212 93.3816 173.212 88.75H171.212H169.212C169.212 92.7642 168.309 96.0984 166.589 98.8392C164.868 101.581 162.251 103.856 158.619 105.624L159.494 107.422ZM171.212 88.75H173.212V77.4219H171.212H169.212V88.75H171.212ZM171.212 77.4219L170.139 75.7346C168.642 76.687 166.633 77.5302 164.052 78.225L164.572 80.1562L165.092 82.0875C167.928 81.3239 170.346 80.3442 172.286 79.1092L171.212 77.4219ZM164.572 80.1562L164.052 78.225C161.43 78.931 158.868 79.4327 156.365 79.733L156.603 81.7188L156.841 83.7045C159.547 83.3798 162.297 82.8398 165.092 82.0875L164.572 80.1562ZM156.603 81.7188L156.348 79.735L147.833 80.8288L148.087 82.8125L148.342 84.7962L156.858 83.7025L156.603 81.7188ZM148.087 82.8125L147.824 80.8299C142.627 81.5193 138.497 82.63 135.611 84.2791L136.603 86.0156L137.595 87.7521C139.814 86.4845 143.339 85.4599 148.351 84.7951L148.087 82.8125ZM136.603 86.0156L135.618 84.2753C130.609 87.1116 128.119 91.7197 128.119 97.7344H130.119H132.119C132.119 93.0199 133.952 89.8155 137.589 87.756L136.603 86.0156ZM164.181 69.2969L164.437 71.2804C168.125 70.8046 171.002 69.1729 172.471 66.0958L170.666 65.2344L168.861 64.3729C168.142 65.8792 166.696 66.9558 163.925 67.3133L164.181 69.2969ZM170.666 65.2344L172.454 66.1288C173.282 64.4735 173.603 62.3141 173.603 59.8438H171.603H169.603C169.603 62.0609 169.299 63.4953 168.877 64.34L170.666 65.2344ZM171.603 59.8438H173.603C173.603 54.5094 171.643 50.3268 167.502 47.7542L166.447 49.4531L165.392 51.152C168.125 52.8503 169.603 55.5948 169.603 59.8438H171.603ZM166.447 49.4531L167.532 47.7733C163.687 45.2885 158.373 44.1719 151.837 44.1719V46.1719V48.1719C158.01 48.1719 162.436 49.2427 165.361 51.133L166.447 49.4531ZM151.837 46.1719V44.1719C144.175 44.1719 138.236 46.241 134.633 50.8829L136.212 52.1094L137.792 53.3358C140.335 50.0611 144.812 48.1719 151.837 48.1719V46.1719ZM136.212 52.1094L134.64 50.8737C132.601 53.4686 131.41 57.1371 130.867 61.6358L132.853 61.875L134.839 62.1142C135.338 57.9671 136.386 55.1251 137.785 53.345L136.212 52.1094ZM132.853 61.875V59.875H119.728V61.875V63.875H132.853V61.875ZM119.728 61.875L121.727 61.9255C121.978 52.0146 125.148 45.6176 130.789 42.0858L129.728 40.3906L128.667 38.6954C121.496 43.1844 117.999 51.1104 117.729 61.8245L119.728 61.875ZM129.728 40.3906L130.793 42.0835C136.897 38.2438 143.993 36.2969 152.15 36.2969V34.2969V32.2969C143.327 32.2969 135.476 34.4125 128.663 38.6977L129.728 40.3906ZM152.15 34.2969V36.2969C161.756 36.2969 169.356 38.1286 175.093 41.6292L176.134 39.9219L177.176 38.2146C170.622 34.2152 162.231 32.2969 152.15 32.2969V34.2969ZM176.134 39.9219L175.086 41.6252C180.517 44.9672 183.275 50.1113 183.275 57.4219H185.275H187.275C187.275 48.8991 183.939 42.3766 177.183 38.2186L176.134 39.9219ZM185.275 57.4219H183.275V105.625H185.275H187.275V57.4219H185.275ZM185.275 105.625H183.275C183.275 107.327 183.607 108.916 184.455 110.227L186.134 109.141L187.814 108.054C187.516 107.594 187.275 106.84 187.275 105.625H185.275ZM186.134 109.141L184.5 110.294C185.714 112.014 187.877 112.469 189.962 112.469V110.469V108.469C188.194 108.469 187.804 108.038 187.768 107.987L186.134 109.141ZM189.962 110.469V112.469C190.641 112.469 191.39 112.441 192.205 112.386L192.072 110.391L191.939 108.395C191.191 108.445 190.534 108.469 189.962 108.469V110.469ZM192.072 110.391L192.336 112.373C193.149 112.265 194.01 112.13 194.919 111.97L194.572 110L194.224 108.03C193.363 108.182 192.557 108.308 191.808 108.408L192.072 110.391ZM194.572 110H192.572V120.391H194.572H196.572V110H194.572ZM194.572 120.391L194.022 118.468C191.857 119.086 190.301 119.445 189.302 119.581L189.572 121.562L189.842 123.544C191.134 123.368 192.912 122.945 195.121 122.314L194.572 120.391ZM189.572 121.562L189.302 119.581C188.286 119.719 186.827 119.797 184.884 119.797V121.797V123.797C186.9 123.797 188.566 123.718 189.842 123.544L189.572 121.562ZM184.884 121.797V119.797C180.574 119.797 177.771 118.311 176.025 115.567L174.337 116.641L172.65 117.714C175.279 121.845 179.507 123.797 184.884 123.797V121.797ZM174.337 116.641L176.031 115.576C175.096 114.089 174.345 111.823 173.896 108.628L171.916 108.906L169.935 109.185C170.423 112.657 171.288 115.547 172.644 117.705L174.337 116.641ZM171.916 108.906L170.326 107.692C167.685 111.15 163.829 114.232 158.657 116.893L159.572 118.672L160.487 120.45C166.044 117.591 170.417 114.162 173.505 110.12L171.916 108.906ZM159.572 118.672L158.657 116.893C153.595 119.498 148.001 120.812 141.837 120.812V122.812V124.812C148.591 124.812 154.82 123.366 160.487 120.45L159.572 118.672ZM141.837 122.812V120.812C134.512 120.812 128.675 118.616 124.15 114.329L122.775 115.781L121.4 117.233C126.771 122.322 133.642 124.812 141.837 124.812V122.812ZM122.775 115.781L124.166 114.344C119.676 109.998 117.431 104.613 117.431 98.0469H115.431H113.431C113.431 105.648 116.082 112.085 121.384 117.218L122.775 115.781ZM115.431 98.0469H117.431C117.431 90.7341 119.693 85.315 124.02 81.5001L122.697 80L121.374 78.4999C116.013 83.2267 113.431 89.8388 113.431 98.0469H115.431ZM122.697 80L124.02 81.5001C128.5 77.5498 134.451 75.0447 142.009 74.0937L141.759 72.1094L141.51 70.125C133.338 71.1532 126.581 73.9086 121.374 78.4999L122.697 80ZM141.759 72.1094L142.008 74.0938L164.43 71.2813L164.181 69.2969L163.932 67.3124L141.51 70.1249L141.759 72.1094ZM207.191 5.23438V3.23438H205.191V5.23438H207.191ZM221.253 5.23438H223.253V3.23438H221.253V5.23438ZM221.253 120V122H223.253V120H221.253ZM207.191 120H205.191V122H207.191V120ZM207.191 5.23438V7.23438H221.253V5.23438V3.23438H207.191V5.23438ZM221.253 5.23438H219.253V120H221.253H223.253V5.23438H221.253ZM221.253 120V118H207.191V120V122H221.253V120ZM207.191 120H209.191V5.23438H207.191H205.191V120H207.191ZM292.934 38.6719L292.033 40.4574L292.04 40.4607L292.047 40.4641L292.934 38.6719ZM305.669 49.4531L303.999 50.5535L304.005 50.5625L305.669 49.4531ZM311.294 64.2188L309.321 64.5475L309.329 64.5947L309.339 64.6414L311.294 64.2188ZM312.544 82.6562V84.6562H314.544V82.6562H312.544ZM251.216 82.6562V80.6562H249.153L249.217 82.7176L251.216 82.6562ZM257.231 103.125L255.614 104.301L255.619 104.309L257.231 103.125ZM292.231 103.516L293.715 104.856L293.721 104.85L293.726 104.844L292.231 103.516ZM297.544 93.75V91.75H296.029L295.619 93.2077L297.544 93.75ZM311.372 93.75L313.358 93.9856L313.623 91.75H311.372V93.75ZM307.7 104.062L305.946 103.101L305.941 103.11L307.7 104.062ZM300.825 113.281L299.456 111.823L299.442 111.836L299.428 111.85L300.825 113.281ZM284.966 121.719L284.515 119.77L284.501 119.773L284.488 119.777L284.966 121.719ZM246.997 111.641L245.548 113.02L245.553 113.025L246.997 111.641ZM247.075 47.0312L245.566 45.7189L247.075 47.0312ZM298.091 71.4844V73.4844H300.287L300.082 71.2972L298.091 71.4844ZM294.106 56.875L292.368 57.8644L292.37 57.8673L294.106 56.875ZM258.559 53.75L260.014 55.1228L260.021 55.1146L258.559 53.75ZM251.606 71.4844L249.608 71.412L249.532 73.4844H251.606V71.4844ZM275.669 34.4531V36.4531C281.277 36.4531 286.725 37.7785 292.033 40.4574L292.934 38.6719L293.835 36.8864C287.998 33.9403 281.935 32.4531 275.669 32.4531V34.4531ZM292.934 38.6719L292.047 40.4641C297.358 43.0947 301.308 46.4699 303.999 50.5534L305.669 49.4531L307.339 48.3528C304.196 43.5822 299.657 39.7699 293.822 36.8797L292.934 38.6719ZM305.669 49.4531L304.005 50.5625C306.642 54.5181 308.424 59.1668 309.321 64.5475L311.294 64.2188L313.267 63.89C312.288 58.0207 310.321 52.8257 307.333 48.3437L305.669 49.4531ZM311.294 64.2188L309.339 64.6414C310.124 68.2735 310.544 74.238 310.544 82.6562H312.544H314.544C314.544 74.1995 314.13 67.8723 313.249 63.7961L311.294 64.2188ZM312.544 82.6562V80.6562H251.216V82.6562V84.6562H312.544V82.6562ZM251.216 82.6562L249.217 82.7176C249.485 91.4776 251.561 98.7282 255.614 104.301L257.231 103.125L258.849 101.949C255.402 97.2093 253.467 90.814 253.215 82.5949L251.216 82.6562ZM257.231 103.125L255.619 104.309C259.838 110.05 266.324 112.781 274.653 112.781V110.781V108.781C267.253 108.781 262.125 106.408 258.843 101.941L257.231 103.125ZM274.653 110.781V112.781C282.484 112.781 288.912 110.175 293.715 104.856L292.231 103.516L290.747 102.175C286.801 106.544 281.51 108.781 274.653 108.781V110.781ZM292.231 103.516L293.726 104.844C296.431 101.801 298.347 98.2752 299.469 94.2923L297.544 93.75L295.619 93.2077C294.657 96.6206 293.031 99.6055 290.736 102.187L292.231 103.516ZM297.544 93.75V95.75H311.372V93.75V91.75H297.544V93.75ZM311.372 93.75L309.386 93.5144C309.061 96.2528 307.952 99.4405 305.946 103.101L307.7 104.062L309.454 105.024C311.615 101.08 312.954 97.3931 313.358 93.9856L311.372 93.75ZM307.7 104.062L305.941 103.11C303.991 106.711 301.822 109.602 299.456 111.823L300.825 113.281L302.194 114.739C304.932 112.169 307.347 108.914 309.459 105.015L307.7 104.062ZM300.825 113.281L299.428 111.85C295.441 115.739 290.491 118.387 284.515 119.77L284.966 121.719L285.417 123.667C292.044 122.134 297.667 119.156 302.222 114.713L300.825 113.281ZM284.966 121.719L284.488 119.777C281.289 120.564 277.626 120.969 273.481 120.969V122.969V124.969C277.879 124.969 281.871 124.54 285.444 123.661L284.966 121.719ZM273.481 122.969V120.969C263.612 120.969 255.305 117.417 248.441 110.257L246.997 111.641L245.553 113.025C253.168 120.968 262.517 124.969 273.481 124.969V122.969ZM246.997 111.641L248.445 110.262C241.656 103.13 238.137 93.0572 238.137 79.7656H236.137H234.137C234.137 93.7657 237.858 104.942 245.548 113.02L246.997 111.641ZM236.137 79.7656H238.137C238.137 66.7049 241.672 56.2926 248.584 48.3436L247.075 47.0312L245.566 45.7189C237.895 54.5407 234.137 65.9514 234.137 79.7656H236.137ZM247.075 47.0312L248.584 48.3436C255.471 40.4236 264.438 36.4531 275.669 36.4531V34.4531V32.4531C263.358 32.4531 253.262 36.8681 245.566 45.7189L247.075 47.0312ZM298.091 71.4844L300.082 71.2972C299.493 65.0393 298.117 59.862 295.843 55.8827L294.106 56.875L292.37 57.8673C294.263 61.1796 295.542 65.742 296.099 71.6716L298.091 71.4844ZM294.106 56.875L295.844 55.8856C291.573 48.3811 284.404 44.7188 274.809 44.7188V46.7188V48.7188C283.236 48.7188 288.932 51.8273 292.368 57.8644L294.106 56.875ZM274.809 46.7188V44.7188C267.801 44.7188 261.854 47.2893 257.097 52.3854L258.559 53.75L260.021 55.1146C264.015 50.8357 268.901 48.7188 274.809 48.7188V46.7188ZM258.559 53.75L257.105 52.3772C252.354 57.4113 249.883 63.8059 249.608 71.412L251.606 71.4844L253.605 71.5568C253.85 64.7878 256.015 59.3595 260.014 55.1228L258.559 53.75ZM251.606 71.4844V73.4844H298.091V71.4844V69.4844H251.606V71.4844ZM327.194 4.84375V2.84375H325.194V4.84375H327.194ZM340.866 4.84375H342.866V2.84375H340.866V4.84375ZM340.866 46.4844H338.866V52.3829L342.453 47.7008L340.866 46.4844ZM351.881 37.3438L352.758 39.1413L352.767 39.137L352.776 39.1326L351.881 37.3438ZM391.1 44.9219L389.612 46.2586L389.617 46.2643L389.623 46.2699L391.1 44.9219ZM348.522 118.047L349.671 116.41L349.669 116.408L348.522 118.047ZM340.163 109.297L341.77 108.107L338.163 103.234V109.297H340.163ZM340.163 120V122H342.163V120H340.163ZM327.194 120H325.194V122H327.194V120ZM380.788 101.172L379.095 100.107L379.088 100.117L380.788 101.172ZM380.788 55.3906L379.11 56.479L379.116 56.4896L380.788 55.3906ZM347.272 53.8281L345.873 52.3986L345.865 52.4062L347.272 53.8281ZM343.053 96.4062L344.909 95.6617L344.907 95.6567L343.053 96.4062ZM327.194 4.84375V6.84375H340.866V4.84375V2.84375H327.194V4.84375ZM340.866 4.84375H338.866V46.4844H340.866H342.866V4.84375H340.866ZM340.866 46.4844L342.453 47.7008C345.35 43.9206 348.784 41.0801 352.758 39.1413L351.881 37.3438L351.004 35.5462C346.437 37.7741 342.527 41.0273 339.278 45.2679L340.866 46.4844ZM351.881 37.3438L352.776 39.1326C356.756 37.1426 361.083 36.1406 365.788 36.1406V34.1406V32.1406C360.492 32.1406 355.549 33.274 350.987 35.5549L351.881 37.3438ZM365.788 34.1406V36.1406C375.686 36.1406 383.565 39.5289 389.612 46.2586L391.1 44.9219L392.588 43.5851C385.718 35.9398 376.722 32.1406 365.788 32.1406V34.1406ZM391.1 44.9219L389.623 46.2699C395.673 52.9017 398.866 62.8833 398.866 76.5625H400.866H402.866C402.866 62.325 399.547 51.2129 392.577 43.5738L391.1 44.9219ZM400.866 76.5625H398.866C398.866 89.4621 395.747 100.012 389.643 108.35L391.256 109.531L392.87 110.713C399.578 101.55 402.866 90.1212 402.866 76.5625H400.866ZM391.256 109.531L389.643 108.35C383.633 116.558 375.367 120.656 364.616 120.656V122.656V124.656C376.572 124.656 386.067 120.005 392.87 110.713L391.256 109.531ZM364.616 122.656V120.656C358.594 120.656 353.65 119.205 349.671 116.41L348.522 118.047L347.372 119.684C352.144 123.035 357.929 124.656 364.616 124.656V122.656ZM348.522 118.047L349.669 116.408C347.312 114.759 344.675 112.031 341.77 108.107L340.163 109.297L338.555 110.487C341.588 114.584 344.523 117.689 347.375 119.685L348.522 118.047ZM340.163 109.297H338.163V120H340.163H342.163V109.297H340.163ZM340.163 120V118H327.194V120V122H340.163V120ZM327.194 120H329.194V4.84375H327.194H325.194V120H327.194ZM363.756 110.234V112.234C371.994 112.234 378.342 108.904 382.487 102.227L380.788 101.172L379.088 100.117C375.733 105.524 370.726 108.234 363.756 108.234V110.234ZM380.788 101.172L382.48 102.237C386.546 95.7757 388.491 87.3985 388.491 77.2656H386.491H384.491C384.491 86.9244 382.633 94.4847 379.095 100.107L380.788 101.172ZM386.491 77.2656H388.491C388.491 68.1786 386.527 60.4776 382.459 54.2917L380.788 55.3906L379.116 56.4896C382.652 61.8662 384.491 68.7484 384.491 77.2656H386.491ZM380.788 55.3906L382.465 54.3022C378.319 47.9092 372.115 44.7188 364.147 44.7188V46.7188V48.7188C370.866 48.7188 375.756 51.3096 379.11 56.479L380.788 55.3906ZM364.147 46.7188V44.7188C357.185 44.7188 351.067 47.3167 345.873 52.3986L347.272 53.8281L348.671 55.2576C353.165 50.8603 358.296 48.7188 364.147 48.7188V46.7188ZM347.272 53.8281L345.865 52.4062C340.517 57.6967 338.084 66.1615 338.084 77.2656H340.084H342.084C342.084 66.5989 344.444 59.4387 348.678 55.25L347.272 53.8281ZM340.084 77.2656H338.084C338.084 85.2731 339.088 91.9351 341.199 97.1558L343.053 96.4062L344.907 95.6567C343.06 91.0858 342.084 84.9873 342.084 77.2656H340.084ZM343.053 96.4062L341.197 97.1508C343.166 102.059 346.044 105.871 349.892 108.44C353.736 111.009 358.396 112.234 363.756 112.234V110.234V108.234C359.013 108.234 355.169 107.155 352.113 105.114C349.06 103.075 346.638 99.9718 344.909 95.6617L343.053 96.4062ZM460.556 5.23438V3.23438H458.556V5.23438H460.556ZM476.103 5.23438H478.103V3.23438H476.103V5.23438ZM476.103 106.328H474.103V108.328H476.103V106.328ZM534.228 106.328H536.228V104.328H534.228V106.328ZM534.228 120V122H536.228V120H534.228ZM460.556 120H458.556V122H460.556V120ZM460.556 5.23438V7.23438H476.103V5.23438V3.23438H460.556V5.23438ZM476.103 5.23438H474.103V106.328H476.103H478.103V5.23438H476.103ZM476.103 106.328V108.328H534.228V106.328V104.328H476.103V106.328ZM534.228 106.328H532.228V120H534.228H536.228V106.328H534.228ZM534.228 120V118H460.556V120V122H534.228V120ZM460.556 120H462.556V5.23438H460.556H458.556V120H460.556ZM592.472 36.3281V34.3281H591.028L590.573 35.6989L592.472 36.3281ZM608.019 36.3281L609.895 37.0204L610.888 34.3281H608.019V36.3281ZM594.816 73.0469L592.932 72.3745L592.931 72.3777L594.816 73.0469ZM582.003 108.203L583.872 108.914L583.873 108.912L582.003 108.203ZM543.019 154.062L542.722 156.04L542.736 156.042L543.019 154.062ZM539.112 153.203H537.112V154.74L538.597 155.136L539.112 153.203ZM539.112 140.391L539.646 138.463L537.112 137.762V140.391H539.112ZM553.019 140.547L551.909 138.883L551.869 138.91L551.83 138.939L553.019 140.547ZM556.144 137.422L557.808 138.531L557.824 138.507L557.84 138.482L556.144 137.422ZM558.956 131.016L557.112 130.243L558.956 131.016ZM562.472 122.422L564.336 123.147L564.607 122.45L564.354 121.746L562.472 122.422ZM531.534 36.3281V34.3281H528.69L529.652 37.0045L531.534 36.3281ZM547.472 36.3281L549.372 35.7029L548.919 34.3281H547.472V36.3281ZM569.894 104.453L567.994 105.078L569.887 110.83L571.792 105.082L569.894 104.453ZM592.472 36.3281V38.3281H608.019V36.3281V34.3281H592.472V36.3281ZM608.019 36.3281L606.142 35.6359C604.159 41.0124 599.754 53.2628 592.932 72.3745L594.816 73.0469L596.699 73.7192C603.523 54.6017 607.92 42.373 609.895 37.0204L608.019 36.3281ZM594.816 73.0469L592.931 72.3777C587.829 86.7459 583.564 98.4499 580.133 107.494L582.003 108.203L583.873 108.912C587.318 99.8313 591.594 88.0979 596.7 73.7161L594.816 73.0469ZM582.003 108.203L580.134 107.492C576.077 118.154 572.627 126.712 569.782 133.179C566.915 139.694 564.721 143.948 563.186 146.107L564.816 147.266L566.445 148.425C568.244 145.896 570.58 141.296 573.443 134.79C576.327 128.236 579.804 119.607 583.872 108.914L582.003 108.203ZM564.816 147.266L563.186 146.107C560.367 150.07 555.392 152.297 547.628 152.297V154.297V156.297C556.114 156.297 562.597 153.836 566.445 148.425L564.816 147.266ZM547.628 154.297V152.297C545.682 152.297 544.256 152.219 543.302 152.083L543.019 154.062L542.736 156.042C543.969 156.219 545.616 156.297 547.628 156.297V154.297ZM543.019 154.062L543.315 152.085C542.375 151.944 541.152 151.677 539.628 151.271L539.112 153.203L538.597 155.136C540.198 155.562 541.579 155.869 542.722 156.04L543.019 154.062ZM539.112 153.203H541.112V140.391H539.112H537.112V153.203H539.112ZM539.112 140.391L538.579 142.318C541.032 142.997 542.91 143.445 544.142 143.621L544.425 141.641L544.708 139.661C543.752 139.524 542.089 139.139 539.646 138.463L539.112 140.391ZM544.425 141.641L544.142 143.621C545.301 143.786 546.363 143.875 547.316 143.875V141.875V139.875C546.602 139.875 545.736 139.808 544.708 139.661L544.425 141.641ZM547.316 141.875V143.875C550.063 143.875 552.491 143.424 554.208 142.155L553.019 140.547L551.83 138.939C551.151 139.441 549.777 139.875 547.316 139.875V141.875ZM553.019 140.547L554.128 142.211C555.598 141.231 556.828 140.001 557.808 138.531L556.144 137.422L554.48 136.312C553.793 137.343 552.94 138.196 551.909 138.883L553.019 140.547ZM556.144 137.422L557.84 138.482C558.066 138.119 558.433 137.315 558.873 136.312C559.349 135.229 559.992 133.719 560.801 131.788L558.956 131.016L557.112 130.243C556.306 132.166 555.673 133.652 555.211 134.704C554.979 135.231 554.795 135.64 554.656 135.937C554.499 136.271 554.439 136.375 554.448 136.362L556.144 137.422ZM558.956 131.016L560.801 131.788C562.417 127.931 563.597 125.047 564.336 123.147L562.472 122.422L560.608 121.697C559.889 123.547 558.725 126.392 557.112 130.243L558.956 131.016ZM562.472 122.422L564.354 121.746L533.417 35.6518L531.534 36.3281L529.652 37.0045L560.59 123.098L562.472 122.422ZM531.534 36.3281V38.3281H547.472V36.3281V34.3281H531.534V36.3281ZM547.472 36.3281L545.572 36.9534L567.994 105.078L569.894 104.453L571.793 103.828L549.372 35.7029L547.472 36.3281ZM569.894 104.453L571.792 105.082L594.37 36.9573L592.472 36.3281L590.573 35.6989L567.995 103.824L569.894 104.453ZM618.294 5.23438V3.23438H616.294V5.23438H618.294ZM631.809 5.23438H633.809V3.23438H631.809V5.23438ZM631.809 71.875H629.809V76.6518L633.213 73.3L631.809 71.875ZM667.903 36.3281V34.3281H667.084L666.5 34.9032L667.903 36.3281ZM685.872 36.3281L687.27 37.7579L690.777 34.3281H685.872V36.3281ZM653.841 67.6562L652.442 66.2264L651.274 67.3692L652.161 68.7418L653.841 67.6562ZM687.669 120V122H691.343L689.349 118.914L687.669 120ZM669.7 120L667.999 121.052L668.585 122H669.7V120ZM643.606 77.8125L645.307 76.7604L644.038 74.7085L642.257 76.3362L643.606 77.8125ZM631.809 88.5938L630.46 87.1174L629.809 87.7122V88.5938H631.809ZM631.809 120V122H633.809V120H631.809ZM618.294 120H616.294V122H618.294V120ZM618.294 5.23438V7.23438H631.809V5.23438V3.23438H618.294V5.23438ZM631.809 5.23438H629.809V71.875H631.809H633.809V5.23438H631.809ZM631.809 71.875L633.213 73.3L669.307 37.7531L667.903 36.3281L666.5 34.9032L630.406 70.45L631.809 71.875ZM667.903 36.3281V38.3281H685.872V36.3281V34.3281H667.903V36.3281ZM685.872 36.3281L684.473 34.8983L652.442 66.2264L653.841 67.6562L655.239 69.0861L687.27 37.7579L685.872 36.3281ZM653.841 67.6562L652.161 68.7418L685.989 121.086L687.669 120L689.349 118.914L655.52 66.5707L653.841 67.6562ZM687.669 120V118H669.7V120V122H687.669V120ZM669.7 120L671.401 118.948L645.307 76.7604L643.606 77.8125L641.905 78.8646L667.999 121.052L669.7 120ZM643.606 77.8125L642.257 76.3362L630.46 87.1174L631.809 88.5938L633.159 90.0701L644.956 79.2888L643.606 77.8125ZM631.809 88.5938H629.809V120H631.809H633.809V88.5938H631.809ZM631.809 120V118H618.294V120V122H631.809V120ZM618.294 120H620.294V5.23438H618.294H616.294V120H618.294ZM696.694 5.23438V3.23438H694.694V5.23438H696.694ZM710.209 5.23438H712.209V3.23438H710.209V5.23438ZM710.209 71.875H708.209V76.6518L711.613 73.3L710.209 71.875ZM746.303 36.3281V34.3281H745.484L744.9 34.9032L746.303 36.3281ZM764.272 36.3281L765.67 37.7579L769.177 34.3281H764.272V36.3281ZM732.241 67.6562L730.842 66.2264L729.674 67.3692L730.561 68.7418L732.241 67.6562ZM766.069 120V122H769.743L767.748 118.914L766.069 120ZM748.1 120L746.399 121.052L746.985 122H748.1V120ZM722.006 77.8125L723.707 76.7604L722.438 74.7085L720.657 76.3362L722.006 77.8125ZM710.209 88.5938L708.86 87.1174L708.209 87.7122V88.5938H710.209ZM710.209 120V122H712.209V120H710.209ZM696.694 120H694.694V122H696.694V120ZM696.694 5.23438V7.23438H710.209V5.23438V3.23438H696.694V5.23438ZM710.209 5.23438H708.209V71.875H710.209H712.209V5.23438H710.209ZM710.209 71.875L711.613 73.3L747.706 37.7531L746.303 36.3281L744.9 34.9032L708.806 70.45L710.209 71.875ZM746.303 36.3281V38.3281H764.272V36.3281V34.3281H746.303V36.3281ZM764.272 36.3281L762.873 34.8983L730.842 66.2264L732.241 67.6562L733.639 69.0861L765.67 37.7579L764.272 36.3281ZM732.241 67.6562L730.561 68.7418L764.389 121.086L766.069 120L767.748 118.914L733.92 66.5707L732.241 67.6562ZM766.069 120V118H748.1V120V122H766.069V120ZM748.1 120L749.801 118.948L723.707 76.7604L722.006 77.8125L720.305 78.8646L746.399 121.052L748.1 120ZM722.006 77.8125L720.657 76.3362L708.86 87.1174L710.209 88.5938L711.559 90.0701L723.355 79.2888L722.006 77.8125ZM710.209 88.5938H708.209V120H710.209H712.209V88.5938H710.209ZM710.209 120V118H696.694V120V122H710.209V120ZM696.694 120H698.694V5.23438H696.694H694.694V120H696.694ZM827.516 38.6719L826.615 40.4574L826.621 40.4607L826.628 40.4641L827.516 38.6719ZM840.25 49.4531L838.58 50.5535L838.586 50.5625L840.25 49.4531ZM845.875 64.2188L843.902 64.5475L843.91 64.5947L843.92 64.6414L845.875 64.2188ZM847.125 82.6562V84.6562H849.125V82.6562H847.125ZM785.797 82.6562V80.6562H783.735L783.798 82.7176L785.797 82.6562ZM791.812 103.125L790.195 104.301L790.201 104.309L791.812 103.125ZM826.812 103.516L828.297 104.856L828.302 104.85L828.307 104.844L826.812 103.516ZM832.125 93.75V91.75H830.611L830.2 93.2077L832.125 93.75ZM845.953 93.75L847.939 93.9856L848.204 91.75H845.953V93.75ZM842.281 104.062L840.527 103.101L840.523 103.11L842.281 104.062ZM835.406 113.281L834.037 111.823L834.023 111.836L834.01 111.85L835.406 113.281ZM819.547 121.719L819.096 119.77L819.082 119.773L819.069 119.777L819.547 121.719ZM781.578 111.641L780.13 113.02L780.134 113.025L781.578 111.641ZM781.656 47.0312L780.147 45.7189L781.656 47.0312ZM832.672 71.4844V73.4844H834.869L834.663 71.2972L832.672 71.4844ZM828.688 56.875L826.949 57.8644L826.951 57.8673L828.688 56.875ZM793.141 53.75L794.595 55.1228L794.603 55.1146L793.141 53.75ZM786.188 71.4844L784.189 71.412L784.114 73.4844H786.188V71.4844ZM810.25 34.4531V36.4531C815.858 36.4531 821.306 37.7785 826.615 40.4574L827.516 38.6719L828.417 36.8864C822.579 33.9403 816.517 32.4531 810.25 32.4531V34.4531ZM827.516 38.6719L826.628 40.4641C831.939 43.0947 835.89 46.4699 838.58 50.5534L840.25 49.4531L841.92 48.3528C838.777 43.5822 834.238 39.7699 828.403 36.8797L827.516 38.6719ZM840.25 49.4531L838.586 50.5625C841.223 54.5181 843.005 59.1668 843.902 64.5475L845.875 64.2188L847.848 63.89C846.87 58.0207 844.902 52.8257 841.914 48.3437L840.25 49.4531ZM845.875 64.2188L843.92 64.6414C844.706 68.2735 845.125 74.238 845.125 82.6562H847.125H849.125C849.125 74.1995 848.711 67.8723 847.83 63.7961L845.875 64.2188ZM847.125 82.6562V80.6562H785.797V82.6562V84.6562H847.125V82.6562ZM785.797 82.6562L783.798 82.7176C784.067 91.4776 786.142 98.7282 790.195 104.301L791.812 103.125L793.43 101.949C789.983 97.2093 788.048 90.814 787.796 82.5949L785.797 82.6562ZM791.812 103.125L790.201 104.309C794.419 110.05 800.905 112.781 809.234 112.781V110.781V108.781C801.835 108.781 796.706 106.408 793.424 101.941L791.812 103.125ZM809.234 110.781V112.781C817.065 112.781 823.493 110.175 828.297 104.856L826.812 103.516L825.328 102.175C821.382 106.544 816.091 108.781 809.234 108.781V110.781ZM826.812 103.516L828.307 104.844C831.013 101.801 832.928 98.2752 834.05 94.2923L832.125 93.75L830.2 93.2077C829.239 96.6206 827.612 99.6055 825.318 102.187L826.812 103.516ZM832.125 93.75V95.75H845.953V93.75V91.75H832.125V93.75ZM845.953 93.75L843.967 93.5144C843.642 96.2528 842.533 99.4405 840.527 103.101L842.281 104.062L844.035 105.024C846.196 101.08 847.535 97.3931 847.939 93.9856L845.953 93.75ZM842.281 104.062L840.523 103.11C838.572 106.711 836.404 109.602 834.037 111.823L835.406 113.281L836.775 114.739C839.513 112.169 841.928 108.914 844.04 105.015L842.281 104.062ZM835.406 113.281L834.01 111.85C830.023 115.739 825.073 118.387 819.096 119.77L819.547 121.719L819.998 123.667C826.625 122.134 832.248 119.156 836.803 114.713L835.406 113.281ZM819.547 121.719L819.069 119.777C815.87 120.564 812.207 120.969 808.062 120.969V122.969V124.969C812.46 124.969 816.453 124.54 820.025 123.661L819.547 121.719ZM808.062 122.969V120.969C798.194 120.969 789.886 117.417 783.022 110.257L781.578 111.641L780.134 113.025C787.749 120.968 797.098 124.969 808.062 124.969V122.969ZM781.578 111.641L783.027 110.262C776.237 103.13 772.719 93.0572 772.719 79.7656H770.719H768.719C768.719 93.7657 772.44 104.942 780.13 113.02L781.578 111.641ZM770.719 79.7656H772.719C772.719 66.7049 776.253 56.2926 783.165 48.3436L781.656 47.0312L780.147 45.7189C772.476 54.5407 768.719 65.9514 768.719 79.7656H770.719ZM781.656 47.0312L783.165 48.3436C790.052 40.4236 799.019 36.4531 810.25 36.4531V34.4531V32.4531C797.939 32.4531 787.843 36.8681 780.147 45.7189L781.656 47.0312ZM832.672 71.4844L834.663 71.2972C834.075 65.0393 832.698 59.862 830.424 55.8827L828.688 56.875L826.951 57.8673C828.844 61.1796 830.123 65.742 830.681 71.6716L832.672 71.4844ZM828.688 56.875L830.426 55.8856C826.154 48.3811 818.985 44.7188 809.391 44.7188V46.7188V48.7188C817.817 48.7188 823.513 51.8273 826.949 57.8644L828.688 56.875ZM809.391 46.7188V44.7188C802.383 44.7188 796.435 47.2893 791.679 52.3854L793.141 53.75L794.603 55.1146C798.596 50.8357 803.482 48.7188 809.391 48.7188V46.7188ZM793.141 53.75L791.686 52.3772C786.935 57.4113 784.464 63.8059 784.189 71.412L786.188 71.4844L788.186 71.5568C788.431 64.7878 790.596 59.3595 794.595 55.1228L793.141 53.75ZM786.188 71.4844V73.4844H832.672V71.4844V69.4844H786.188V71.4844ZM862.869 36.3281V34.3281H860.869V36.3281H862.869ZM876.228 36.3281H878.228V34.3281H876.228V36.3281ZM876.228 48.2031H874.228V53.8579L877.783 49.4606L876.228 48.2031ZM927.634 46.875L925.848 47.7739L925.85 47.7776L927.634 46.875ZM931.072 120V122H933.072V120H931.072ZM916.775 120H914.775V122H916.775V120ZM914.509 54.9219L912.706 55.7873L912.709 55.7922L914.509 54.9219ZM892.713 48.125L893.282 50.0421L893.3 50.0369L893.317 50.0315L892.713 48.125ZM882.556 55L884.081 56.2945L884.081 56.294L882.556 55ZM877.947 63.5938L876.005 63.1167L876.002 63.1291L875.999 63.1415L877.947 63.5938ZM876.931 120V122H878.931V120H876.931ZM862.869 120H860.869V122H862.869V120ZM862.869 36.3281V38.3281H876.228V36.3281V34.3281H862.869V36.3281ZM876.228 36.3281H874.228V48.2031H876.228H878.228V36.3281H876.228ZM876.228 48.2031L877.783 49.4606C881.606 44.7322 885.578 41.4339 889.675 39.4576L888.806 37.6562L887.937 35.8549C883.18 38.1494 878.767 41.8824 874.673 46.9457L876.228 48.2031ZM888.806 37.6562L889.675 39.4576C893.805 37.4658 898.425 36.4531 903.572 36.4531V34.4531V32.4531C897.885 32.4531 892.662 33.5759 887.937 35.8549L888.806 37.6562ZM903.572 34.4531V36.4531C914.943 36.4531 922.121 40.3666 925.848 47.7739L927.634 46.875L929.421 45.9761C924.815 36.8209 915.951 32.4531 903.572 32.4531V34.4531ZM927.634 46.875L925.85 47.7776C927.936 51.9022 929.072 58.0218 929.072 66.3281H931.072H933.072C933.072 57.7594 931.916 50.9103 929.419 45.9724L927.634 46.875ZM931.072 66.3281H929.072V120H931.072H933.072V66.3281H931.072ZM931.072 120V118H916.775V120V122H931.072V120ZM916.775 120H918.775V67.2656H916.775H914.775V120H916.775ZM916.775 67.2656H918.775C918.775 61.9906 917.999 57.545 916.31 54.0515L914.509 54.9219L912.709 55.7922C914.041 58.5487 914.775 62.3323 914.775 67.2656H916.775ZM914.509 54.9219L916.312 54.0564C914.907 51.128 912.885 48.853 910.233 47.3285C907.595 45.8129 904.458 45.1094 900.916 45.1094V47.1094V49.1094C903.935 49.1094 906.345 49.7079 908.239 50.7965C910.118 51.8762 911.612 53.5075 912.706 55.7873L914.509 54.9219ZM900.916 47.1094V45.1094C897.467 45.1094 894.509 45.4572 892.108 46.2185L892.713 48.125L893.317 50.0315C895.187 49.4387 897.698 49.1094 900.916 49.1094V47.1094ZM892.713 48.125L892.143 46.2079C887.872 47.4775 884.168 50.0096 881.031 53.706L882.556 55L884.081 56.294C886.778 53.1154 889.844 51.0642 893.282 50.0421L892.713 48.125ZM882.556 55L881.032 53.7055C878.524 56.659 876.82 59.796 876.005 63.1167L877.947 63.5938L879.889 64.0708C880.532 61.454 881.901 58.8618 884.081 56.2945L882.556 55ZM877.947 63.5938L875.999 63.1415C875.27 66.2812 874.931 70.6539 874.931 76.1719H876.931H878.931C878.931 70.7524 879.27 66.7397 879.895 64.046L877.947 63.5938ZM876.931 76.1719H874.931V120H876.931H878.931V76.1719H876.931ZM876.931 120V118H862.869V120V122H876.931V120ZM862.869 120H864.869V36.3281H862.869H860.869V120H862.869Z" fill="#EF6440" mask="url(#path-1-outside-1_20_6)"/>
</svg>
